<?xml version="1.0" encoding="utf-8"?>
<svg version="1.0" xmlns="http://www.w3.org/2000/svg" width="600.000000pt" height="600.000000pt" viewBox="0 0 600.000000 600.000000" preserveAspectRatio="xMidYMid meet">
  <g transform="translate(0.000000,600.000000) scale(0.100000,-0.100000)" fill="#000000" stroke="none">
    <path d="M0 5624 c0 -6 83 -153 157 -281 28 -49 296 -519 313 -550 9 -16 74 -131 146 -258 72 -126 139 -243 148 -260 9 -16 29 -51 44 -76 34 -58 212 -369 232 -406 8 -16 45 -80 81 -143 37 -63 104 -180 149 -260 45 -80 93 -163 105 -185 132 -230 205 -359 205 -363 0 -3 6 -13 14 -21 7 -9 29 -45 48 -81 20 -36 80 -141 133 -235 124 -215 237 -413 255 -445 8 -14 24 -41 36 -60 12 -19 62 -107 112 -195 49 -88 99 -176 110 -195 12 -19 51 -87 87 -150 36 -63 77 -135 91 -160 46 -80 231 -403 260 -455 15 -27 50 -88 77 -135 27 -47 81 -141 119 -210 39 -69 72 -126 73 -128 2 -3 106 173 149 253 9 17 20 37 25 45 14 22 74 128 104 180 56 102 197 349 227 400 18 30 79 136 135 235 56 99 152 266 212 371 60 105 113 198 117 205 3 8 15 28 25 44 10 17 54 93 98 170 44 77 187 327 318 555 131 228 246 431 257 450 11 19 27 49 37 65 10 17 67 116 126 220 59 105 116 205 126 223 11 17 28 47 38 66 11 18 74 130 142 247 67 118 127 223 133 234 6 11 20 36 32 55 12 19 71 123 131 230 149 263 135 238 274 480 67 118 131 231 141 250 10 19 23 42 28 50 6 8 37 62 70 120 l60 105 -762 3 c-609 2 -765 0 -771 -10 -28 -47 -83 -141 -106 -183 -16 -27 -37 -66 -48 -85 -11 -19 -43 -75 -70 -125 -28 -49 -62 -110 -77 -135 -14 -25 -87 -155 -163 -288 -76 -134 -146 -258 -157 -275 -10 -18 -55 -97 -101 -177 -45 -80 -93 -163 -105 -185 -13 -22 -30 -53 -38 -70 -8 -16 -23 -41 -32 -55 -10 -14 -70 -119 -135 -235 -65 -115 -119 -211 -121 -213 -1 -2 -157 86 -346 195 -349 203 -510 295 -562 324 -27 14 -85 107 -245 394 -15 28 -37 66 -48 85 -56 97 -241 423 -271 480 -20 36 -54 97 -77 135 -22 39 -44 77 -48 85 -4 8 -18 33 -32 55 -13 22 -30 54 -39 70 -8 17 -39 71 -69 120 l-53 90 -762 3 c-419 1 -762 -1 -762 -4z m2532 -1946 c78 -46 162 -95 187 -110 25 -16 82 -48 126 -73 44 -26 94 -54 110 -64 26 -16 55 -33 190 -111 17 -9 77 -45 133 -79 57 -33 105 -61 107 -61 1 0 44 -25 94 -55 51 -30 94 -55 97 -55 3 0 17 -8 32 -19 15 -10 100 -61 189 -112 90 -52 163 -96 163 -99 0 -3 -10 -12 -22 -19 -25 -16 -425 -253 -473 -281 -16 -9 -64 -38 -105 -63 -41 -25 -194 -116 -340 -202 -146 -87 -281 -168 -300 -180 -19 -12 -57 -35 -85 -51 -60 -35 -64 -37 -165 -97 -44 -26 -84 -47 -90 -47 -7 0 -10 303 -10 930 0 653 3 930 11 930 6 0 74 -37 151 -82z" style="fill: rgb(200, 245, 66);"/>
  </g>
</svg>